# xmcd
#
# Track frame offsets: 
#        150
#        16944
#        32212
#        48379
#        64010
#        80384
#        94852
#        101444
#        116792
#        131482
#        140450
#        159831
#
# Disc length: 2290 seconds
#
# Revision: 0
# Processed by: cddbd v1.5.2PL0 Copyright (c) Steve Scherf et al.
# Submitted via: ExactAudioCopy v0.99pb5
#
DISCID=9508f00c
DTITLE=Ray West and Kool Keith - A Couple Of Slices
DYEAR=1900
DGENRE=Hip-Hop
TTITLE0=Don't Let Em Lie
TTITLE1=Tank Top
TTITLE2=Running The Field ft. Cormega
TTITLE3=Pointy Shoes
TTITLE4=You I Want
TTITLE5=Destiny's Child ft. 3rd Eye
TTITLE6=Love On A Red Planet
TTITLE7=AKA John Shaft
TTITLE8=I Know A Girl
TTITLE9=Here To Stay
TTITLE10=MC Try Outs ft. Dying Breed
TTITLE11=Crooked Cop ft. AG of D.I.T.C.
EXTD=
EXTT0=
EXTT1=
EXTT2=
EXTT3=
EXTT4=
EXTT5=
EXTT6=
EXTT7=
EXTT8=
EXTT9=
EXTT10=
EXTT11=
PLAYORDER=
